PathFileType	4	(X/Y/Z)	Walk5.trc
DataRate	CameraRate	NumFrames	NumMarkers	Units	OrigDataRate	OrigDataStartFrame	OrigNumFrames
200.000000	200.000000	4	59	mm	200.000000	470	531
Frame#	Times		RFHD		CLAV		RASI		RACR1		RUA1		RFA1		LUA1		LFA1		LWRR		LWRU		RTH1		LTH2		LCAR		LACR1		LFHD		RBack		RCAR		LTH4		LTH3		T10		LLFC		C7		RWRR		LASI		RWRU		RElbow		LTB2		LToe		LBHD		RBHD		LTH1		STRN		RTB1		LTB4		RTH4		RPSI		RTH2		RMT1		LMMAL		LTB1		LMT1		LCAL		LElbow		LTB3		LMT5		RTB2		RElbowM		RTH3		RLFC		LElbowM		RTB4		LLMAL		LPSI		RTB3		RCAL		RToe		RMMAL		RLMAL		RMT5
			X1	Y1	Z1	X2	Y2	Z2	X3	Y3	Z3	X4	Y4	Z4	X5	Y5	Z5	X6	Y6	Z6	X7	Y7	Z7	X8	Y8	Z8	X9	Y9	Z9	X10	Y10	Z10	X11	Y11	Z11	X12	Y12	Z12	X13	Y13	Z13	X14	Y14	Z14	X15	Y15	Z15	X16	Y16	Z16	X17	Y17	Z17	X18	Y18	Z18	X19	Y19	Z19	X20	Y20	Z20	X21	Y21	Z21	X22	Y22	Z22	X23	Y23	Z23	X24	Y24	Z24	X25	Y25	Z25	X26	Y26	Z26	X27	Y27	Z27	X28	Y28	Z28	X29	Y29	Z29	X30	Y30	Z30	X31	Y31	Z31	X32	Y32	Z32	X33	Y33	Z33	X34	Y34	Z34	X35	Y35	Z35	X36	Y36	Z36	X37	Y37	Z37	X38	Y38	Z38	X39	Y39	Z39	X40	Y40	Z40	X41	Y41	Z41	X42	Y42	Z42	X43	Y43	Z43	X44	Y44	Z44	X45	Y45	Z45	X46	Y46	Z46	X47	Y47	Z47	X48	Y48	Z48	X49	Y49	Z49	X50	Y50	Z50	X51	Y51	Z51	X52	Y52	Z52	X53	Y53	Z53	X54	Y54	Z54	X55	Y55	Z55	X56	Y56	Z56	X57	Y57	Z57	X58	Y58	Z58	X59	Y59	Z59

470	2.35	560.31	1421.2	40.346	557.18	1175	-13.453	555.85	814.98	159.52	485.61	1206.6	165.98	497.99	1069.3	251.87	587.38	837.69	293.34	497.32	1023.9	-268.46	509.06	816.85	-319.44	542.31	706.79	-314.38	485.64	706.56	-342.67	476.82	626.79	210.05	576.73	588.53	-160.29	521.05	661.19	-360.89	484.68	1192.3	-204.3	568.59	1430.5	-55.868	367.86	1139.1	104.32	645.54	694.95	312.17	529.12	567.06	-189.5	547.13	485.51	-161.02	331.21	1057.5	-1.4189	586.06	402.85	-123.1	416.72	1258.6	-17.8	633.62	752.26	260.46	547.98	805.37	-160.5	585.2	731.48	308.77	506.69	941.72	288.78	604.91	218.84	-111.72	764.57	35.013	-48.454	449.84	1339.9	-84.761	439.22	1335.4	47.857	511.11	648.89	-211.04	611.57	1069.1	-5.7812	392.36	266.46	95.549	622.39	221.29	-52.197	461.28	544.31	191.22	296.94	831.51	59.47	517.43	540.88	170.46	254.45	36.262	11.626	609.55	75.124	-5.0607	620.22	308.78	-56.686	716.35	37.351	-23.584	548.15	42.083	-39.225	461.23	909.27	-280	631.06	138.55	-48.914	673.65	19.454	-104.96	297.65	228.24	124.91	457.51	901.02	220.65	449.4	461.25	166.78	404.84	380.31	147.11	434.98	883.87	-213.01	329.66	208	76.841	589.91	58.181	-83.229	287.96	830.77	-46.132	273.04	148.27	58.748	140.77	149.06	33.708	298.77	27.269	48.28	215.85	131.75	5.0047	191.8	128.23	84.186	224.29	37.716	99.31
471	2.355	565.92	1422.2	39.504	562.84	1175.9	-14.137	561.88	815.79	158.38	491.26	1207.9	165.21	503.05	1070.7	251.19	591.14	838.24	292.94	504.3	1024.7	-268.66	516.46	817.41	-318.86	549.75	707.31	-313.01	493.4	707.07	-341.94	484.22	627.24	210.11	581.91	589.09	-160.76	528.89	661.35	-359.44	490.82	1193.3	-204.95	574.4	1431.3	-56.713	373.45	1140.3	103.71	647.96	694.86	312.37	534.16	567.84	-189.89	551.79	486.22	-161.39	336.78	1058.4	-1.9848	590.21	403.16	-123.35	422.32	1259.5	-18.642	636.78	752.19	260.45	553.99	806.8	-160.7	587.99	732.07	308.7	511.24	942.84	287.8	607.22	218.73	-111.85	764.8	34.074	-48.12	455.62	1340.7	-85.689	444.72	1336.5	46.948	516.49	649.75	-211.45	617.12	1070	-6.8901	401.84	266.63	97.375	624.36	221.04	-52.225	470.13	544.45	191.73	302.96	831.79	59.939	526.27	541.94	170.81	257.24	37.344	11.932	609.78	75.053	-5.0114	623.18	308.56	-56.77	716.42	36.713	-23.387	548.22	42.241	-39.307	468.25	909.92	-280.02	632.14	138.2	-48.815	673.68	19.4	-105.13	306.03	230.58	125.92	462.32	902.47	219.25	459.64	461.08	167.78	415.72	380.09	148.36	441.77	884.8	-213.02	338.06	209.37	78.352	590.24	58.176	-83.245	293.41	831.68	-45.885	280.42	150.7	60.024	148.85	155.25	33.712	299.9	27.173	48.739	223.4	135.25	5.7436	198.43	132.37	84.55	227.02	39.868	99.204
472	2.36	571.55	1423.1	38.689	568.46	1176.9	-14.782	567.88	816.63	157.24	496.86	1209.3	164.48	508.13	1072.1	250.53	594.88	838.83	292.56	511.3	1025.7	-268.83	523.9	818.06	-318.27	557.29	707.94	-311.59	501.28	707.65	-341.19	491.63	627.71	210.17	586.95	589.52	-161.29	536.89	661.57	-357.92	496.91	1194.3	-205.55	580.23	1432	-57.531	379.02	1141.6	103.12	650.35	694.78	312.54	539.02	568.52	-190.29	556.21	486.83	-161.75	342.35	1059.3	-2.5271	594.12	403.37	-123.58	427.85	1260.4	-19.445	639.9	752.15	260.43	559.93	808.27	-160.91	590.77	732.72	308.65	515.78	943.98	286.84	609.37	218.6	-111.95	764.98	33.313	-47.794	461.39	1341.5	-86.581	450.21	1337.6	46.075	521.76	650.53	-211.86	622.62	1071	-7.9717	411.61	266.88	99.167	626.2	220.79	-52.227	479.07	544.61	192.21	308.97	832.11	60.365	535.21	543.08	171.18	260.59	38.568	12.367	609.96	74.984	-4.9514	625.96	308.32	-56.823	716.45	36.192	-23.186	548.25	42.366	-39.36	475.26	910.64	-280.06	633.12	137.86	-48.698	673.7	19.415	-105.26	314.79	232.96	126.93	467.15	903.96	217.88	470.07	460.95	168.76	426.81	379.9	149.57	448.54	885.81	-213.04	346.83	210.78	79.878	590.5	58.177	-83.242	298.86	832.62	-45.665	288.2	153.13	61.365	157.35	161.26	33.821	301.57	27.093	49.376	231.37	138.68	6.5403	205.53	136.45	84.99	230.31	42.161	99.203
473	2.365	577.19	1424.1	37.904	574.06	1177.8	-15.387	573.87	817.48	156.11	502.4	1210.6	163.78	513.23	1073.4	249.91	598.61	839.46	292.19	518.33	1026.6	-268.97	531.37	818.78	-317.67	564.92	708.68	-310.13	509.3	708.29	-340.42	499.05	628.2	210.21	591.85	589.82	-161.85	545.04	661.86	-356.33	502.96	1195.4	-206.1	586.08	1432.8	-58.319	384.56	1142.8	102.56	652.74	694.71	312.69	543.71	569.12	-190.7	560.39	487.35	-162.1	347.9	1060.2	-3.0461	597.8	403.51	-123.8	433.33	1261.3	-20.21	643.01	752.14	260.42	565.79	809.75	-161.15	593.56	733.41	308.64	520.33	945.15	285.9	611.36	218.46	-112.04	765.11	32.707	-47.479	467.14	1342.4	-87.436	455.68	1338.7	45.24	526.91	651.23	-212.27	628.09	1071.9	-9.0164	421.65	267.2	100.9	627.91	220.53	-52.22	488.07	544.8	192.66	314.95	832.48	60.742	544.21	544.29	171.55	264.59	39.93	12.95	610.11	74.915	-4.8854	628.58	308.06	-56.867	716.44	35.771	-22.984	548.27	42.463	-39.387	482.25	911.42	-280.1	634.02	137.53	-48.58	673.69	19.478	-105.37	323.89	235.34	127.94	471.99	905.48	216.53	480.63	460.89	169.71	438.07	379.75	150.73	455.28	886.88	-213.08	355.92	212.23	81.391	590.71	58.183	-83.225	304.3	833.58	-45.475	296.35	155.54	62.746	166.24	167	34.033	303.91	27.038	50.213	239.72	142.01	7.3802	213.07	140.42	85.502	234.24	44.579	99.326
